<svg xmlns="http://www.w3.org/2000/svg" viewBox="0 0 512 512" width="512" height="512">
  <defs>
    <linearGradient id="gradient" x1="0%" y1="0%" x2="100%" y2="100%">
      <stop offset="0%" stop-color="#9c27b0" />
      <stop offset="100%" stop-color="#6a1b9a" />
    </linearGradient>
  </defs>
  <rect width="512" height="512" rx="64" fill="#f8f9fa" />
  <g transform="translate(96, 96) scale(0.625)">
    <path d="M462.3 62.6C407.5 15.9 326 24.3 275.7 76.2L256 96.5l-19.7-20.3C186.1 24.3 104.5 15.9 49.7 62.6c-62.8 53.6-66.1 149.8-9.9 207.9l193.5 199.8c12.5 12.9 32.8 12.9 45.3 0l193.5-199.8c56.3-58.1 53-154.3-9.8-207.9z" fill="url(#gradient)"/>
  </g>
  <g transform="translate(256, 350) scale(0.5)">
    <path d="M336 0h-160c-26.5 0-48 21.5-48 48v416c0 26.5 21.5 48 48 48h160c26.5 0 48-21.5 48-48V48c0-26.5-21.5-48-48-48zM256 448c-17.7 0-32-14.3-32-32s14.3-32 32-32 32 14.3 32 32-14.3 32-32 32zm96-96H160V64h192v288z" fill="#6a1b9a"/>
  </g>
</svg>